<?xml version="1.0" standalone="no"?>
<!DOCTYPE svg PUBLIC "-//W3C//DTD SVG 20010904//EN"
 "http://www.w3.org/TR/2001/REC-SVG-20010904/DTD/svg10.dtd">
<svg version="1.0" xmlns="http://www.w3.org/2000/svg"
 width="100" height="100" viewBox="0 0 1200.000000 1200.000000"
 preserveAspectRatio="xMidYMid meet">

<g transform="translate(0.000000,1200.000000) scale(0.100000,-0.100000)"
fill="#000000" stroke="none">
<path d="M5862 6903 c-73 -439 -132 -804 -132 -810 0 -10 34 -13 138 -13 l137
0 130 783 c71 430 131 794 133 810 l4 27 -138 0 -139 0 -133 -797z"/>
<path d="M5258 7245 l-338 -210 0 -141 0 -141 302 -189 c167 -104 320 -199
340 -212 l38 -23 0 159 0 159 -191 118 c-105 66 -192 122 -194 126 -3 3 81 60
187 125 105 65 192 123 194 129 3 6 3 78 2 160 l-3 150 -337 -210z"/>
<path d="M6402 7297 l3 -160 192 -120 c106 -66 191 -123 188 -126 -2 -4 -89
-60 -194 -126 l-191 -118 0 -160 0 -159 23 14 c12 8 165 103 340 212 l317 198
0 142 0 141 -340 211 -340 212 2 -161z"/>
<path d="M7400 5935 l0 -95 1425 0 1425 0 0 95 0 95 -1425 0 -1425 0 0 -95z"/>
<path d="M1750 5905 l0 -95 1425 0 1425 0 0 95 0 95 -1425 0 -1425 0 0 -95z"/>
<path d="M6162 5310 c-59 -28 -71 -39 -76 -73 -1 -8 -8 -23 -16 -33 -13 -14
-15 -78 -15 -388 0 -340 2 -374 18 -408 44 -87 106 -121 214 -116 60 3 78 8
114 33 61 44 84 93 84 185 l0 75 -67 3 -68 3 -1 -33 c-4 -101 -21 -128 -80
-128 -29 0 -42 6 -53 23 -18 28 -18 30 -17 394 1 300 1 302 24 329 50 58 114
23 125 -67 l7 -54 56 -3 c78 -4 87 7 78 93 -17 167 -165 242 -327 165z"/>
<path d="M5540 4823 c0 -274 4 -503 8 -509 11 -17 100 -26 124 -13 21 11 21
16 15 245 -3 129 -2 234 2 234 4 0 15 -26 25 -57 10 -32 48 -140 84 -240 l65
-183 73 0 c87 0 87 -1 45 103 -16 40 -32 83 -36 97 -4 14 -18 50 -31 80 -13
30 -39 98 -58 151 l-36 96 85 234 c47 129 85 239 85 246 0 18 -136 18 -147 1
-8 -13 -27 -65 -103 -288 -23 -69 -45 -128 -49 -132 -3 -4 -8 88 -9 205 -2
117 -6 215 -9 219 -2 5 -33 8 -69 8 l-64 0 0 -497z"/>
</g>
</svg>
